{
    "asset" : {
        "generator" : "Khronos glTF Blender I/O v1.7.5",
        "version" : "2.0"
    },
    "scene" : 0,
    "scenes" : [
        {
            "name" : "Scene",
            "nodes" : [
                0,
                1,
                2,
                3,
                4,
                5
            ]
        }
    ],
    "nodes" : [
        {
            "mesh" : 0,
            "name" : "ammo"
        },
        {
            "mesh" : 1,
            "name" : "base"
        },
        {
            "mesh" : 2,
            "name" : "laser"
        },
        {
            "mesh" : 3,
            "name" : "mag"
        },
        {
            "mesh" : 4,
            "name" : "suppressor"
        },
        {
            "mesh" : 5,
            "name" : "tritium"
        }
    ],
    "materials" : [
        {
            "doubleSided" : true,
            "name" : "ammo",
            "pbrMetallicRoughness" : {}
        },
        {
            "doubleSided" : true,
            "name" : "base",
            "pbrMetallicRoughness" : {}
        },
        {
            "doubleSided" : true,
            "name" : "laser",
            "pbrMetallicRoughness" : {}
        },
        {
            "doubleSided" : true,
            "name" : "mag",
            "pbrMetallicRoughness" : {}
        },
        {
            "doubleSided" : true,
            "name" : "suppressor",
            "pbrMetallicRoughness" : {}
        },
        {
            "doubleSided" : true,
            "emissiveFactor" : [
                0,
                0.6000000238418579,
                0
            ],
            "name" : "tritium",
            "pbrMetallicRoughness" : {}
        }
    ],
    "meshes" : [
        {
            "name" : "ammo",
            "primitives" : [
                {
                    "attributes" : {
                        "POSITION" : 0,
                        "NORMAL" : 1,
                        "TEXCOORD_0" : 2
                    },
                    "indices" : 3,
                    "material" : 0
                }
            ]
        },
        {
            "name" : "base",
            "primitives" : [
                {
                    "attributes" : {
                        "POSITION" : 4,
                        "NORMAL" : 5,
                        "TEXCOORD_0" : 6
                    },
                    "indices" : 7,
                    "material" : 1
                }
            ]
        },
        {
            "name" : "laser",
            "primitives" : [
                {
                    "attributes" : {
                        "POSITION" : 8,
                        "NORMAL" : 9,
                        "TEXCOORD_0" : 10
                    },
                    "indices" : 11,
                    "material" : 2
                }
            ]
        },
        {
            "name" : "mag",
            "primitives" : [
                {
                    "attributes" : {
                        "POSITION" : 12,
                        "NORMAL" : 13,
                        "TEXCOORD_0" : 14
                    },
                    "indices" : 15,
                    "material" : 3
                }
            ]
        },
        {
            "name" : "suppressor",
            "primitives" : [
                {
                    "attributes" : {
                        "POSITION" : 16,
                        "NORMAL" : 17,
                        "TEXCOORD_0" : 18
                    },
                    "indices" : 19,
                    "material" : 4
                }
            ]
        },
        {
            "name" : "tritium",
            "primitives" : [
                {
                    "attributes" : {
                        "POSITION" : 20,
                        "NORMAL" : 21,
                        "TEXCOORD_0" : 22
                    },
                    "indices" : 3,
                    "material" : 5
                }
            ]
        }
    ],
    "accessors" : [
        {
            "bufferView" : 0,
            "componentType" : 5126,
            "count" : 768,
            "max" : [
                0.0068111419677734375,
                0.07474000006914139,
                -0.020687580108642578
            ],
            "min" : [
                -0.006850242614746094,
                0.04715000092983246,
                -0.0543973445892334
            ],
            "type" : "VEC3"
        },
        {
            "bufferView" : 1,
            "componentType" : 5126,
            "count" : 768,
            "type" : "VEC3"
        },
        {
            "bufferView" : 2,
            "componentType" : 5126,
            "count" : 768,
            "type" : "VEC2"
        },
        {
            "bufferView" : 3,
            "componentType" : 5123,
            "count" : 768,
            "type" : "SCALAR"
        },
        {
            "bufferView" : 4,
            "componentType" : 5126,
            "count" : 20544,
            "max" : [
                0.017551064491271973,
                0.09291999787092209,
                0.09828376770019531
            ],
            "min" : [
                -0.01691615581512451,
                -0.0408100001513958,
                -0.10391736030578613
            ],
            "type" : "VEC3"
        },
        {
            "bufferView" : 5,
            "componentType" : 5126,
            "count" : 20544,
            "type" : "VEC3"
        },
        {
            "bufferView" : 6,
            "componentType" : 5126,
            "count" : 20544,
            "type" : "VEC2"
        },
        {
            "bufferView" : 7,
            "componentType" : 5123,
            "count" : 20544,
            "type" : "SCALAR"
        },
        {
            "bufferView" : 8,
            "componentType" : 5126,
            "count" : 3648,
            "max" : [
                0.019318222999572754,
                0.05508999899029732,
                0.09985756874084473
            ],
            "min" : [
                -0.016251683235168457,
                0.03579000011086464,
                0.03838014602661133
            ],
            "type" : "VEC3"
        },
        {
            "bufferView" : 9,
            "componentType" : 5126,
            "count" : 3648,
            "type" : "VEC3"
        },
        {
            "bufferView" : 10,
            "componentType" : 5126,
            "count" : 3648,
            "type" : "VEC2"
        },
        {
            "bufferView" : 11,
            "componentType" : 5123,
            "count" : 3648,
            "type" : "SCALAR"
        },
        {
            "bufferView" : 12,
            "componentType" : 5126,
            "count" : 4416,
            "max" : [
                0.013498544692993164,
                0.07586000114679337,
                -0.018728256225585938
            ],
            "min" : [
                -0.013501524925231934,
                -0.04061000049114227,
                -0.08220398426055908
            ],
            "type" : "VEC3"
        },
        {
            "bufferView" : 13,
            "componentType" : 5126,
            "count" : 4416,
            "type" : "VEC3"
        },
        {
            "bufferView" : 14,
            "componentType" : 5126,
            "count" : 4416,
            "type" : "VEC2"
        },
        {
            "bufferView" : 15,
            "componentType" : 5123,
            "count" : 4416,
            "type" : "SCALAR"
        },
        {
            "bufferView" : 16,
            "componentType" : 5126,
            "count" : 1536,
            "max" : [
                0.012473344802856445,
                0.08771999925374985,
                0.2517428398132324
            ],
            "min" : [
                -0.012476444244384766,
                0.05349000170826912,
                0.09798526763916016
            ],
            "type" : "VEC3"
        },
        {
            "bufferView" : 17,
            "componentType" : 5126,
            "count" : 1536,
            "type" : "VEC3"
        },
        {
            "bufferView" : 18,
            "componentType" : 5126,
            "count" : 1536,
            "type" : "VEC2"
        },
        {
            "bufferView" : 19,
            "componentType" : 5123,
            "count" : 1536,
            "type" : "SCALAR"
        },
        {
            "bufferView" : 20,
            "componentType" : 5126,
            "count" : 768,
            "max" : [
                0.00343167781829834,
                0.09244000166654587,
                0.08440542221069336
            ],
            "min" : [
                -0.0035663843154907227,
                0.09085000306367874,
                -0.06444859504699707
            ],
            "type" : "VEC3"
        },
        {
            "bufferView" : 21,
            "componentType" : 5126,
            "count" : 768,
            "type" : "VEC3"
        },
        {
            "bufferView" : 22,
            "componentType" : 5126,
            "count" : 768,
            "type" : "VEC2"
        }
    ],
    "bufferViews" : [
        {
            "buffer" : 0,
            "byteLength" : 9216,
            "byteOffset" : 0
        },
        {
            "buffer" : 0,
            "byteLength" : 9216,
            "byteOffset" : 9216
        },
        {
            "buffer" : 0,
            "byteLength" : 6144,
            "byteOffset" : 18432
        },
        {
            "buffer" : 0,
            "byteLength" : 1536,
            "byteOffset" : 24576
        },
        {
            "buffer" : 0,
            "byteLength" : 246528,
            "byteOffset" : 26112
        },
        {
            "buffer" : 0,
            "byteLength" : 246528,
            "byteOffset" : 272640
        },
        {
            "buffer" : 0,
            "byteLength" : 164352,
            "byteOffset" : 519168
        },
        {
            "buffer" : 0,
            "byteLength" : 41088,
            "byteOffset" : 683520
        },
        {
            "buffer" : 0,
            "byteLength" : 43776,
            "byteOffset" : 724608
        },
        {
            "buffer" : 0,
            "byteLength" : 43776,
            "byteOffset" : 768384
        },
        {
            "buffer" : 0,
            "byteLength" : 29184,
            "byteOffset" : 812160
        },
        {
            "buffer" : 0,
            "byteLength" : 7296,
            "byteOffset" : 841344
        },
        {
            "buffer" : 0,
            "byteLength" : 52992,
            "byteOffset" : 848640
        },
        {
            "buffer" : 0,
            "byteLength" : 52992,
            "byteOffset" : 901632
        },
        {
            "buffer" : 0,
            "byteLength" : 35328,
            "byteOffset" : 954624
        },
        {
            "buffer" : 0,
            "byteLength" : 8832,
            "byteOffset" : 989952
        },
        {
            "buffer" : 0,
            "byteLength" : 18432,
            "byteOffset" : 998784
        },
        {
            "buffer" : 0,
            "byteLength" : 18432,
            "byteOffset" : 1017216
        },
        {
            "buffer" : 0,
            "byteLength" : 12288,
            "byteOffset" : 1035648
        },
        {
            "buffer" : 0,
            "byteLength" : 3072,
            "byteOffset" : 1047936
        },
        {
            "buffer" : 0,
            "byteLength" : 9216,
            "byteOffset" : 1051008
        },
        {
            "buffer" : 0,
            "byteLength" : 9216,
            "byteOffset" : 1060224
        },
        {
            "buffer" : 0,
            "byteLength" : 6144,
            "byteOffset" : 1069440
        }
    ],
    "buffers" : [
        {
            "byteLength" : 1075584,
            "uri" : "data:application/octet-stream;base64,"
        }
    ]
}
