{
    "asset" : {
        "generator" : "Khronos glTF Blender I/O v1.5.17",
        "version" : "2.0"
    },
    "scene" : 0,
    "scenes" : [
        {
            "name" : "Scene",
            "nodes" : [
                0,
                1,
                2,
                3,
                4,
                5,
                6,
                7,
                8
            ]
        }
    ],
    "nodes" : [
        {
            "mesh" : 0,
            "name" : "ammo1"
        },
        {
            "mesh" : 1,
            "name" : "ammo2"
        },
        {
            "mesh" : 2,
            "name" : "base"
        },
        {
            "mesh" : 3,
            "name" : "compensator"
        },
        {
            "mesh" : 4,
            "name" : "ironsights"
        },
        {
            "mesh" : 5,
            "name" : "laser"
        },
        {
            "mesh" : 6,
            "name" : "mag"
        },
        {
            "mesh" : 7,
            "name" : "tritium"
        },
        {
            "mesh" : 8,
            "name" : "vgrip"
        }
    ],
    "materials" : [
        {
            "doubleSided" : true,
            "name" : "ammo",
            "pbrMetallicRoughness" : {}
        },
        {
            "doubleSided" : true,
            "name" : "base",
            "pbrMetallicRoughness" : {}
        },
        {
            "doubleSided" : true,
            "name" : "compensator",
            "pbrMetallicRoughness" : {}
        },
        {
            "doubleSided" : true,
            "name" : "ironsights",
            "pbrMetallicRoughness" : {}
        },
        {
            "doubleSided" : true,
            "name" : "laser",
            "pbrMetallicRoughness" : {}
        },
        {
            "doubleSided" : true,
            "name" : "mag",
            "pbrMetallicRoughness" : {}
        },
        {
            "doubleSided" : true,
            "emissiveFactor" : [
                0,
                0.6000000238418579,
                0
            ],
            "name" : "tritium",
            "pbrMetallicRoughness" : {}
        },
        {
            "doubleSided" : true,
            "name" : "vgrip",
            "pbrMetallicRoughness" : {}
        }
    ],
    "meshes" : [
        {
            "name" : "ammo1",
            "primitives" : [
                {
                    "attributes" : {
                        "POSITION" : 0,
                        "NORMAL" : 1,
                        "TEXCOORD_0" : 2
                    },
                    "indices" : 3,
                    "material" : 0
                }
            ]
        },
        {
            "name" : "ammo2",
            "primitives" : [
                {
                    "attributes" : {
                        "POSITION" : 4,
                        "NORMAL" : 5,
                        "TEXCOORD_0" : 6
                    },
                    "indices" : 7,
                    "material" : 0
                }
            ]
        },
        {
            "name" : "base",
            "primitives" : [
                {
                    "attributes" : {
                        "POSITION" : 8,
                        "NORMAL" : 9,
                        "TEXCOORD_0" : 10
                    },
                    "indices" : 11,
                    "material" : 1
                }
            ]
        },
        {
            "name" : "compensator",
            "primitives" : [
                {
                    "attributes" : {
                        "POSITION" : 12,
                        "NORMAL" : 13,
                        "TEXCOORD_0" : 14
                    },
                    "indices" : 15,
                    "material" : 2
                }
            ]
        },
        {
            "name" : "ironsights",
            "primitives" : [
                {
                    "attributes" : {
                        "POSITION" : 16,
                        "NORMAL" : 17,
                        "TEXCOORD_0" : 18
                    },
                    "indices" : 19,
                    "material" : 3
                }
            ]
        },
        {
            "name" : "laser",
            "primitives" : [
                {
                    "attributes" : {
                        "POSITION" : 20,
                        "NORMAL" : 21,
                        "TEXCOORD_0" : 22
                    },
                    "indices" : 23,
                    "material" : 4
                }
            ]
        },
        {
            "name" : "mag",
            "primitives" : [
                {
                    "attributes" : {
                        "POSITION" : 24,
                        "NORMAL" : 25,
                        "TEXCOORD_0" : 26
                    },
                    "indices" : 27,
                    "material" : 5
                }
            ]
        },
        {
            "name" : "tritium",
            "primitives" : [
                {
                    "attributes" : {
                        "POSITION" : 28,
                        "NORMAL" : 29,
                        "TEXCOORD_0" : 30
                    },
                    "indices" : 31,
                    "material" : 6
                }
            ]
        },
        {
            "name" : "vgrip",
            "primitives" : [
                {
                    "attributes" : {
                        "POSITION" : 32,
                        "NORMAL" : 33,
                        "TEXCOORD_0" : 34
                    },
                    "indices" : 35,
                    "material" : 7
                }
            ]
        }
    ],
    "accessors" : [
        {
            "bufferView" : 0,
            "componentType" : 5126,
            "count" : 1344,
            "max" : [
                0.007236003875732422,
                0.11932999640703201,
                0.10373497009277344
            ],
            "min" : [
                -0.0024787187576293945,
                0.10963000357151031,
                0.04687952995300293
            ],
            "type" : "VEC3"
        },
        {
            "bufferView" : 1,
            "componentType" : 5126,
            "count" : 1344,
            "type" : "VEC3"
        },
        {
            "bufferView" : 2,
            "componentType" : 5126,
            "count" : 1344,
            "type" : "VEC2"
        },
        {
            "bufferView" : 3,
            "componentType" : 5123,
            "count" : 1344,
            "type" : "SCALAR"
        },
        {
            "bufferView" : 4,
            "componentType" : 5126,
            "count" : 1152,
            "max" : [
                0.007354736328125,
                0.10582999885082245,
                0.10955345630645752
            ],
            "min" : [
                -0.008137702941894531,
                0.07304999977350235,
                0.046994566917419434
            ],
            "type" : "VEC3"
        },
        {
            "bufferView" : 5,
            "componentType" : 5126,
            "count" : 1152,
            "type" : "VEC3"
        },
        {
            "bufferView" : 6,
            "componentType" : 5126,
            "count" : 1152,
            "type" : "VEC2"
        },
        {
            "bufferView" : 7,
            "componentType" : 5123,
            "count" : 1152,
            "type" : "SCALAR"
        },
        {
            "bufferView" : 8,
            "componentType" : 5126,
            "count" : 40512,
            "max" : [
                0.028827190399169922,
                0.17712000012397766,
                0.5719051361083984
            ],
            "min" : [
                -0.031819701194763184,
                -0.054979998618364334,
                -0.37054920196533203
            ],
            "type" : "VEC3"
        },
        {
            "bufferView" : 9,
            "componentType" : 5126,
            "count" : 40512,
            "type" : "VEC3"
        },
        {
            "bufferView" : 10,
            "componentType" : 5126,
            "count" : 40512,
            "type" : "VEC2"
        },
        {
            "bufferView" : 11,
            "componentType" : 5123,
            "count" : 40512,
            "type" : "SCALAR"
        },
        {
            "bufferView" : 12,
            "componentType" : 5126,
            "count" : 3072,
            "max" : [
                0.012544393539428711,
                0.12279000133275986,
                0.6360335350036621
            ],
            "min" : [
                -0.012541532516479492,
                0.09769999980926514,
                0.5721118450164795
            ],
            "type" : "VEC3"
        },
        {
            "bufferView" : 13,
            "componentType" : 5126,
            "count" : 3072,
            "type" : "VEC3"
        },
        {
            "bufferView" : 14,
            "componentType" : 5126,
            "count" : 3072,
            "type" : "VEC2"
        },
        {
            "bufferView" : 15,
            "componentType" : 5123,
            "count" : 3072,
            "type" : "SCALAR"
        },
        {
            "bufferView" : 16,
            "componentType" : 5126,
            "count" : 5760,
            "max" : [
                0.019498467445373535,
                0.17414000630378723,
                -0.011597990989685059
            ],
            "min" : [
                -0.01948535442352295,
                0.14225000143051147,
                -0.05873692035675049
            ],
            "type" : "VEC3"
        },
        {
            "bufferView" : 17,
            "componentType" : 5126,
            "count" : 5760,
            "type" : "VEC3"
        },
        {
            "bufferView" : 18,
            "componentType" : 5126,
            "count" : 5760,
            "type" : "VEC2"
        },
        {
            "bufferView" : 19,
            "componentType" : 5123,
            "count" : 5760,
            "type" : "SCALAR"
        },
        {
            "bufferView" : 20,
            "componentType" : 5126,
            "count" : 6528,
            "max" : [
                -0.021071910858154297,
                0.1540600061416626,
                0.295135498046875
            ],
            "min" : [
                -0.06470286846160889,
                0.08675999939441681,
                0.19405686855316162
            ],
            "type" : "VEC3"
        },
        {
            "bufferView" : 21,
            "componentType" : 5126,
            "count" : 6528,
            "type" : "VEC3"
        },
        {
            "bufferView" : 22,
            "componentType" : 5126,
            "count" : 6528,
            "type" : "VEC2"
        },
        {
            "bufferView" : 23,
            "componentType" : 5123,
            "count" : 6528,
            "type" : "SCALAR"
        },
        {
            "bufferView" : 24,
            "componentType" : 5126,
            "count" : 5952,
            "max" : [
                0.012696266174316406,
                0.10561999678611755,
                0.11799824237823486
            ],
            "min" : [
                -0.012683987617492676,
                -0.03829000145196915,
                0.04192972183227539
            ],
            "type" : "VEC3"
        },
        {
            "bufferView" : 25,
            "componentType" : 5126,
            "count" : 5952,
            "type" : "VEC3"
        },
        {
            "bufferView" : 26,
            "componentType" : 5126,
            "count" : 5952,
            "type" : "VEC2"
        },
        {
            "bufferView" : 27,
            "componentType" : 5123,
            "count" : 5952,
            "type" : "SCALAR"
        },
        {
            "bufferView" : 28,
            "componentType" : 5126,
            "count" : 384,
            "max" : [
                0.004067659378051758,
                0.17253999412059784,
                0.43995141983032227
            ],
            "min" : [
                -0.004071474075317383,
                0.1691800057888031,
                -0.043558597564697266
            ],
            "type" : "VEC3"
        },
        {
            "bufferView" : 29,
            "componentType" : 5126,
            "count" : 384,
            "type" : "VEC3"
        },
        {
            "bufferView" : 30,
            "componentType" : 5126,
            "count" : 384,
            "type" : "VEC2"
        },
        {
            "bufferView" : 31,
            "componentType" : 5123,
            "count" : 384,
            "type" : "SCALAR"
        },
        {
            "bufferView" : 32,
            "componentType" : 5126,
            "count" : 2688,
            "max" : [
                0.017413973808288574,
                0.08963999897241592,
                0.25534892082214355
            ],
            "min" : [
                -0.01728498935699463,
                -0.031050000339746475,
                0.19582116603851318
            ],
            "type" : "VEC3"
        },
        {
            "bufferView" : 33,
            "componentType" : 5126,
            "count" : 2688,
            "type" : "VEC3"
        },
        {
            "bufferView" : 34,
            "componentType" : 5126,
            "count" : 2688,
            "type" : "VEC2"
        },
        {
            "bufferView" : 35,
            "componentType" : 5123,
            "count" : 2688,
            "type" : "SCALAR"
        }
    ],
    "bufferViews" : [
        {
            "buffer" : 0,
            "byteLength" : 16128,
            "byteOffset" : 0
        },
        {
            "buffer" : 0,
            "byteLength" : 16128,
            "byteOffset" : 16128
        },
        {
            "buffer" : 0,
            "byteLength" : 10752,
            "byteOffset" : 32256
        },
        {
            "buffer" : 0,
            "byteLength" : 2688,
            "byteOffset" : 43008
        },
        {
            "buffer" : 0,
            "byteLength" : 13824,
            "byteOffset" : 45696
        },
        {
            "buffer" : 0,
            "byteLength" : 13824,
            "byteOffset" : 59520
        },
        {
            "buffer" : 0,
            "byteLength" : 9216,
            "byteOffset" : 73344
        },
        {
            "buffer" : 0,
            "byteLength" : 2304,
            "byteOffset" : 82560
        },
        {
            "buffer" : 0,
            "byteLength" : 486144,
            "byteOffset" : 84864
        },
        {
            "buffer" : 0,
            "byteLength" : 486144,
            "byteOffset" : 571008
        },
        {
            "buffer" : 0,
            "byteLength" : 324096,
            "byteOffset" : 1057152
        },
        {
            "buffer" : 0,
            "byteLength" : 81024,
            "byteOffset" : 1381248
        },
        {
            "buffer" : 0,
            "byteLength" : 36864,
            "byteOffset" : 1462272
        },
        {
            "buffer" : 0,
            "byteLength" : 36864,
            "byteOffset" : 1499136
        },
        {
            "buffer" : 0,
            "byteLength" : 24576,
            "byteOffset" : 1536000
        },
        {
            "buffer" : 0,
            "byteLength" : 6144,
            "byteOffset" : 1560576
        },
        {
            "buffer" : 0,
            "byteLength" : 69120,
            "byteOffset" : 1566720
        },
        {
            "buffer" : 0,
            "byteLength" : 69120,
            "byteOffset" : 1635840
        },
        {
            "buffer" : 0,
            "byteLength" : 46080,
            "byteOffset" : 1704960
        },
        {
            "buffer" : 0,
            "byteLength" : 11520,
            "byteOffset" : 1751040
        },
        {
            "buffer" : 0,
            "byteLength" : 78336,
            "byteOffset" : 1762560
        },
        {
            "buffer" : 0,
            "byteLength" : 78336,
            "byteOffset" : 1840896
        },
        {
            "buffer" : 0,
            "byteLength" : 52224,
            "byteOffset" : 1919232
        },
        {
            "buffer" : 0,
            "byteLength" : 13056,
            "byteOffset" : 1971456
        },
        {
            "buffer" : 0,
            "byteLength" : 71424,
            "byteOffset" : 1984512
        },
        {
            "buffer" : 0,
            "byteLength" : 71424,
            "byteOffset" : 2055936
        },
        {
            "buffer" : 0,
            "byteLength" : 47616,
            "byteOffset" : 2127360
        },
        {
            "buffer" : 0,
            "byteLength" : 11904,
            "byteOffset" : 2174976
        },
        {
            "buffer" : 0,
            "byteLength" : 4608,
            "byteOffset" : 2186880
        },
        {
            "buffer" : 0,
            "byteLength" : 4608,
            "byteOffset" : 2191488
        },
        {
            "buffer" : 0,
            "byteLength" : 3072,
            "byteOffset" : 2196096
        },
        {
            "buffer" : 0,
            "byteLength" : 768,
            "byteOffset" : 2199168
        },
        {
            "buffer" : 0,
            "byteLength" : 32256,
            "byteOffset" : 2199936
        },
        {
            "buffer" : 0,
            "byteLength" : 32256,
            "byteOffset" : 2232192
        },
        {
            "buffer" : 0,
            "byteLength" : 21504,
            "byteOffset" : 2264448
        },
        {
            "buffer" : 0,
            "byteLength" : 5376,
            "byteOffset" : 2285952
        }
    ],
    "buffers" : [
        {
            "byteLength" : 2291328,
            "uri" : "data:application/octet-stream;base64,"
        }
    ]
}
